<svg viewBox="0 0 128 128" version="1.1" id="svg1" xml:space="preserve" xmlns="http://www.w3.org/2000/svg">
  <g id="layer1" transform="translate(-.2 -5.45)">
    <g id="g8" transform="translate(-71.11 18.93)">
      <g id="g6">
        <g id="g7" transform="translate(14.21 30.43)">
          <g id="g1" transform="matrix(1.1 0 0 1.1 -12.08 -1.45)">
            <path id="path2" d="M99.44-38.6A60.13 60.01 0 0 0 76.1-20.99a102.4 102.4 0 0 1 87.2 81.84 60.13 60.01 0 0 0 16.1-24.3A124.9 124.9 0 0 0 99.43-38.6ZM67.55-3.88a4.5 4.5 0 0 0-1.11.1 60.13 60.01 0 0 0-3.55 17.9A4.44 4.44 0 0 0 67 18.38a62.25 62.25 0 0 1 58.02 58.02v.03a60.13 60.01 0 0 0 21.91-4.93A84.5 84.5 0 0 0 67.55-3.88Zm14 47.07a18.6 18.6 0 0 0-10.66 3.34A60.13 60.01 0 0 0 97.76 71.1a18.64 18.64 0 0 0-16.21-27.9z" fill="#7f2aff" stroke-width=".24"/>
          </g>
        </g>
      </g>
    </g>
  </g>
  <style type="text/css" id="style1">
    .st0{fill:#ec6525}
  </style>
</svg>