<svg xmlns="http://www.w3.org/2000/svg" xml:space="preserve" viewBox="0 0 170.285 45.3">
  <g transform="matrix(.9152 0 0 .94013 -5.222 -27.13)">
    <rect width="96.9" height="45.3" x="89.3" y="30.3" fill="#7f2aff" ry="11.8"/>
    <path fill="#60f" d="M101 30.3c-4.8 0-8.9 2.8-10.7 7a49 49 0 0 1 43.4 38.3h17.8c-3-19-14-35.2-29.4-45.3zm43 0a80.4 80.4 0 0 1 21.7 45.3h8.8c3.3 0 6.2-1.4 8.4-3.5a97.7 97.7 0 0 0-16.4-41.8Zm-43.5 26.4c-4.5 0-8.5 2-11.2 5.1v2c0 6.5 5.2 11.8 11.7 11.8h13.6a14.7 14.7 0 0 0-14.1-19z"/>
  </g>
  <path fill="#fff" d="m17.058 21.643 6.506-13.399H29L19.524 26.11v10.407h-4.931V26.11L5.097 8.243h5.457zm12.408 4.174q0-3.087 1.223-5.553 1.225-2.485 3.438-3.806 2.214-1.34 5.088-1.34 4.252 0 6.893 2.738 2.66 2.738 2.874 7.263L49 26.225q0 3.107-1.203 5.554-1.184 2.447-3.417 3.787-2.214 1.34-5.127 1.34-4.447 0-7.126-2.953-2.66-2.97-2.66-7.903zm4.72.408q0 3.244 1.339 5.088 1.34 1.825 3.728 1.825t3.709-1.864q1.339-1.863 1.339-5.456 0-3.184-1.378-5.048-1.36-1.864-3.71-1.864-2.31 0-3.67 1.845-1.359 1.825-1.359 5.475zM65.72 34.46q-2.078 2.446-5.904 2.446-3.417 0-5.184-2-1.748-2-1.748-5.786V15.507h4.72v13.555q0 4 3.32 4 3.436 0 4.64-2.467V15.507h4.72v21.01h-4.448zm31.78-8.835h-5.478v10.893H87.11V8.244h9.942q4.892 0 7.553 2.195 2.66 2.194 2.66 6.35 0 2.835-1.379 4.756-1.36 1.904-3.806 2.934l6.35 11.785v.253h-5.262zm-5.478-3.942h5.048q2.486 0 3.884-1.243 1.398-1.262 1.398-3.437 0-2.272-1.301-3.515-1.281-1.242-3.845-1.28h-5.184Zm34.68 7.554q0-1.865-1.32-2.874-1.301-1.01-4.719-2.04-3.417-1.029-5.437-2.29-3.864-2.428-3.864-6.33 0-3.419 2.777-5.632 2.797-2.214 7.242-2.214 2.952 0 5.263 1.088t3.631 3.107q1.321 2 1.321 4.447h-4.893q0-2.214-1.398-3.457-1.38-1.263-3.962-1.263-2.408 0-3.748 1.03-1.32 1.03-1.32 2.874 0 1.553 1.437 2.602 1.437 1.029 4.738 2.02 3.3.97 5.3 2.232 2 1.243 2.933 2.874.932 1.612.932 3.786 0 3.535-2.718 5.632-2.7 2.077-7.34 2.077-3.068 0-5.65-1.126-2.565-1.145-4.001-3.146-1.418-2-1.418-4.66h4.913q0 2.408 1.592 3.729 1.592 1.32 4.563 1.32 2.564 0 3.845-1.029 1.302-1.05 1.302-2.757zm24 0q0-1.865-1.32-2.874-1.3-1.01-4.72-2.04-3.416-1.029-5.435-2.29-3.864-2.428-3.864-6.33 0-3.419 2.776-5.632 2.796-2.214 7.243-2.214 2.952 0 5.262 1.088 2.31 1.088 3.632 3.107 1.32 2 1.32 4.447h-4.894q0-2.214-1.398-3.457-1.378-1.263-3.96-1.263-2.408 0-3.749 1.03-1.32 1.03-1.32 2.874 0 1.553 1.437 2.602 1.437 1.029 4.738 2.02 3.3.97 5.301 2.232 2 1.243 2.932 2.874.932 1.612.932 3.786 0 3.535-2.718 5.632-2.699 2.077-7.34 2.077-3.068 0-5.65-1.126-2.564-1.145-4-3.146-1.418-2-1.418-4.66h4.913q0 2.408 1.592 3.729 1.592 1.32 4.563 1.32 2.563 0 3.845-1.029 1.3-1.05 1.3-2.757z"/>
</svg>
